<svg xmlns="http://www.w3.org/2000/svg" xml:space="preserve" width="2000" height="1500" data-id="lg_IlyYqeLcLzVynvTouy" data-version="1" viewBox="0 0 2000 1500"><path fill="#f5ba42" stroke="transparent" d="M0 0h2000v1500H0z"/><g data-padding="20"><g transform="translate(-1642.349 -1244.466)scale(2.57406)"><rect width="406.192" height="116.39" x="422.295" y="317.049" fill="none" rx="0" ry="0" transform="translate(477.41 401.75)"/><path fill="#fff" d="m957.391 737.244-23.69 55.83-23.69-55.83h-9.79l33.48 75.71 33.47-75.71Zm13.9 48.41q0 7.11 3.24 12.72 3.24 5.62 8.81 8.81 5.56 3.19 12.46 3.19 7 0 12.51-3.19t8.76-8.81q3.24-5.61 3.24-12.72 0-7.21-3.24-12.77-3.25-5.56-8.76-8.76-5.51-3.19-12.51-3.19-6.9 0-12.46 3.19-5.57 3.2-8.81 8.76t-3.24 12.77m8.34 0q0-4.94 2.11-8.81 2.11-3.86 5.77-6.02 3.65-2.16 8.29-2.16 4.63 0 8.29 2.16t5.77 6.02q2.11 3.87 2.11 8.81 0 4.95-2.11 8.76t-5.77 6.02q-3.66 2.22-8.29 2.22-4.64 0-8.29-2.22-3.66-2.21-5.77-6.02t-2.11-8.76m55.72 0q0-4.94 2.11-8.81 2.11-3.86 5.77-6.02t8.29-2.16q3.81 0 7.16 1.18 3.35 1.19 5.82 3.14 2.47 1.96 3.5 4.33v-10.3q-2.47-2.89-7.05-4.48-4.59-1.6-9.43-1.6-6.9 0-12.46 3.19-5.56 3.2-8.81 8.76-3.24 5.56-3.24 12.77 0 7.11 3.24 12.72 3.25 5.62 8.81 8.81t12.46 3.19q4.84 0 9.43-1.6 4.58-1.59 7.05-4.48v-10.3q-1.03 2.27-3.5 4.28t-5.82 3.19q-3.35 1.19-7.16 1.19-4.63 0-8.29-2.22-3.66-2.21-5.77-6.02t-2.11-8.76m49.24 9.07q0-2.58 1.23-4.43 1.24-1.86 3.76-2.89t6.54-1.03q4.33 0 8.14 1.08 3.81 1.09 7.41 3.56v-4.84q-.72-.93-2.78-2.42-2.06-1.5-5.51-2.68-3.45-1.19-8.6-1.19-8.75 0-13.65 4.17-4.89 4.18-4.89 11.08 0 4.84 2.27 8.24 2.26 3.4 6.02 5.2t8.09 1.8q3.91 0 7.88-1.44 3.96-1.44 6.69-4.43t2.73-7.52l-1.64-6.18q0 3.71-1.81 6.54-1.8 2.83-4.84 4.38-3.04 1.54-6.85 1.54-2.98 0-5.3-.97-2.32-.98-3.61-2.94-1.28-1.96-1.28-4.63m-5.26-27.92 4.02 6.08q1.13-.82 3.09-1.96 1.96-1.13 4.79-1.95 2.83-.83 6.33-.83 2.17 0 4.12.41 1.96.42 3.45 1.34 1.5.93 2.32 2.53.83 1.59.83 4.06v32.86h8.24v-33.99q0-4.63-2.32-7.83-2.32-3.19-6.49-4.89t-9.73-1.7q-6.6 0-11.28 1.96-4.69 1.96-7.37 3.91m53.05 28.02-6.49 4.02q1.34 2.78 3.96 5.45 2.63 2.68 6.44 4.38t8.55 1.7q7.31 0 11.79-4.12t4.48-10.3q0-4.22-2-6.9-2.01-2.68-5.41-4.58-3.4-1.91-7.52-3.56-2.47-1.03-4.74-2.16-2.26-1.13-3.71-2.57-1.44-1.45-1.44-3.3 0-2.37 1.86-3.5 1.85-1.14 4.42-1.14 3.71 0 6.65 1.76 2.93 1.75 4.89 4.42l6.59-4.22q-1.44-2.68-4.01-4.74-2.58-2.06-5.93-3.29-3.34-1.24-7.16-1.24-3.81 0-7.36 1.34t-5.77 4.12q-2.21 2.78-2.21 7 0 4.12 2.11 6.85t5.25 4.43 6.23 2.94q2.78 1.03 5.26 2.21 2.47 1.19 4.06 2.89 1.6 1.7 1.6 4.17 0 2.78-2.01 4.38-2.01 1.59-5.51 1.59-2.88 0-5.3-1.08t-4.28-2.93q-1.85-1.86-3.29-4.02m46.24 37.19 30.9-70.04h-9.27l-14.62 36.67 3.4.41-15.04-37.08h-9.79l18.13 40.69-12.98 29.35Zm69.01-51.5v28.84h8.24v-29.87q0-8.55-4.37-13.54-4.38-5-11.9-5-4.63 0-8.19 2.06-3.55 2.06-5.92 6.39v-7.42h-8.24v47.38h8.24v-28.84q0-3.5 1.49-6.18 1.5-2.68 4.23-4.17t6.33-1.49q4.94 0 7.52 2.98 2.57 2.99 2.57 8.86m27.41 5.14q0-4.94 2.11-8.81 2.12-3.86 5.77-6.02 3.66-2.16 8.29-2.16 3.81 0 7.16 1.18 3.35 1.19 5.82 3.14 2.47 1.96 3.5 4.33v-10.3q-2.47-2.89-7.05-4.48-4.59-1.6-9.43-1.6-6.9 0-12.46 3.19-5.56 3.2-8.81 8.76-3.24 5.56-3.24 12.77 0 7.11 3.24 12.72 3.25 5.62 8.81 8.81t12.46 3.19q4.84 0 9.43-1.6 4.58-1.59 7.05-4.48v-10.3q-1.03 2.27-3.5 4.28t-5.82 3.19q-3.35 1.19-7.16 1.19-4.63 0-8.29-2.22-3.65-2.21-5.77-6.02-2.11-3.81-2.11-8.76m-526.438 7.35 11.053-4.684s-10.199-20.667 11.127-36.65c0 0 13.322-9.112 27.938-2.89l4.538-11.14s-22.18-9.308-40.821 5.174c0 0-25.974 17.165-13.835 50.19"/><path fill="#fff" d="m804.931 724.014-14.53 35.636 25.082-10.553Zm26.376 36.734-11.053 4.685s10.187 20.667-11.139 36.636c0 0-13.335 9.114-27.938 2.892l-4.55 11.126s22.179 9.32 40.82-5.16c0 0 25.987-17.154 13.86-50.18"/><path fill="#fff" d="m774.967 829.714 14.543-35.648-25.096 10.553Z"/><path stroke="#fff" stroke-width="4.15" d="M866.331 697.767V851.9"/></g><path fill="transparent" stroke="transparent" stroke-width="2.669" d="M250 544.484h1500v411.032H250z"/></g></svg>